<svg width="800" height="800" viewBox="0 -28.5 256 256" fill="#000000" xmlns="http://www.w3.org/2000/svg">
    <path d="M216.856 16.597C200.285 8.844 182.566 3.209 164.041 0c-2.275 4.113-4.933 9.645-6.765 14.046-19.692-2.961-39.203-2.961-58.533-.046-1.832-4.401-4.55-9.933-6.845-14.046C73.353 3.209 55.614 8.864 39.042 16.638 5.618 67.147-3.443 116.401 1.087 164.956c22.169 16.555 43.653 26.612 64.775 33.193 5.215-7.177 9.866-14.807 13.873-22.848-7.631-2.9-14.94-6.478-21.846-10.632 1.832-1.357 3.624-2.776 5.355-4.236 42.123 19.702 87.89 19.702 129.51 0 1.752 1.46 3.544 2.879 5.356 4.236-6.906 4.154-14.215 7.732-21.846 10.632 4.007 8.041 8.638 15.691 13.873 22.868 21.142-6.58 42.646-16.636 64.815-33.212 5.316-56.288-9.08-105.09-38.055-148.36zm-131.382 118.498c-12.645 0-23.015-11.805-23.015-26.18s10.148-26.175 23.015-26.175c12.866 0 23.236 11.804 23.015 26.18.02 14.375-10.148 26.175-23.015 26.175zm85.051 0c-12.645 0-23.015-11.805-23.015-26.18s10.148-26.175 23.015-26.175c12.866 0 23.236 11.804 23.015 26.18 0 14.375-10.148 26.175-23.015 26.175z" fill="#fff"/>
</svg>